<svg width="24" height="24" viewBox="0 0 24 24" fill="none" xmlns="http://www.w3.org/2000/svg">
<path d="M4.62603 10.9896L12.5185 18.9727L20.411 10.9896C21.1087 10.2838 21.5008 9.32648 21.5008 8.32831C21.5008 7.33015 21.1087 6.37286 20.411 5.66705C20.0654 5.31757 19.6553 5.04035 19.2038 4.85121C18.7524 4.66207 18.2686 4.56473 17.7799 4.56473C16.7931 4.56473 15.8467 4.96125 15.1489 5.66705L12.5185 8.32769L9.88809 5.66831C9.18852 4.97197 8.24525 4.58345 7.26377 4.58737C6.28228 4.5913 5.34208 4.98735 4.64798 5.68926C3.95388 6.39118 3.5621 7.34208 3.55799 8.33485C3.55388 9.32761 3.93776 10.2818 4.62603 10.9896ZM11.6417 3.89205L12.5185 4.77892L13.3953 3.89205C13.9702 3.30544 14.654 2.83947 15.4074 2.52087C16.1608 2.20228 16.969 2.03734 17.7856 2.03554C18.6021 2.03373 19.411 2.19508 20.1658 2.51033C20.9206 2.82558 21.6064 3.28853 22.1838 3.87258C22.7612 4.45663 23.2189 5.1503 23.5306 5.91375C23.8423 6.6772 24.0018 7.49539 24 8.32137C23.9982 9.14734 23.8351 9.96483 23.5202 10.7269C23.2052 11.489 22.7445 12.1806 22.1646 12.7621L13.3965 21.6321C13.2814 21.7487 13.1446 21.8412 12.994 21.9044C12.8435 21.9675 12.6821 22 12.5191 22C12.3561 22 12.1948 21.9675 12.0442 21.9044C11.8936 21.8412 11.7569 21.7487 11.6417 21.6321L2.87242 12.7633C2.28459 12.1837 1.8164 11.4918 1.495 10.7277C1.1736 9.96365 1.00539 9.14264 1.00013 8.3123C0.994868 7.48196 1.15266 6.65883 1.46436 5.89066C1.77605 5.12249 2.23544 4.42456 2.81588 3.83737C3.39632 3.25018 4.08625 2.78541 4.84565 2.47003C5.60506 2.15464 6.41881 1.99492 7.23972 2.00012C8.06063 2.00533 8.87234 2.17535 9.62778 2.50034C10.3832 2.82532 11.0673 3.2988 11.6404 3.8933L11.6417 3.89205Z" fill="#181725"/>
</svg>
