<svg width="24" height="24" viewBox="0 0 24 24" fill="none" xmlns="http://www.w3.org/2000/svg">
<path d="M12 7.41667C9.47275 7.41667 7.41667 9.47275 7.41667 12C7.41667 14.5273 9.47275 16.5833 12 16.5833C14.5273 16.5833 16.5833 14.5273 16.5833 12C16.5833 9.47275 14.5273 7.41667 12 7.41667ZM12 14.75C10.4838 14.75 9.25 13.5162 9.25 12C9.25 10.4838 10.4838 9.25 12 9.25C13.5162 9.25 14.75 10.4838 14.75 12C14.75 13.5162 13.5162 14.75 12 14.75ZM22.0833 11.0833H21.1208C20.6891 6.75942 17.2406 3.31 12.9167 2.87917V1.91667C12.9167 1.40975 12.506 1 12 1C11.494 1 11.0833 1.40975 11.0833 1.91667V2.87917C6.75942 3.31 3.31 6.75942 2.87917 11.0833H1.91667C1.41067 11.0833 1 11.4931 1 12C1 12.5069 1.41067 12.9167 1.91667 12.9167H2.87917C3.31092 17.2406 6.75942 20.69 11.0833 21.1208V22.0833C11.0833 22.5903 11.494 23 12 23C12.506 23 12.9167 22.5903 12.9167 22.0833V21.1208C17.2406 20.6891 20.69 17.2406 21.1208 12.9167H22.0833C22.5893 12.9167 23 12.5069 23 12C23 11.4931 22.5893 11.0833 22.0833 11.0833ZM12 19.3333C7.95658 19.3333 4.66667 16.0434 4.66667 12C4.66667 7.95658 7.95658 4.66667 12 4.66667C16.0434 4.66667 19.3333 7.95658 19.3333 12C19.3333 16.0434 16.0434 19.3333 12 19.3333Z" fill="#393939"/>
</svg>
