<svg width="16" height="16" viewBox="0 0 16 16" fill="none" xmlns="http://www.w3.org/2000/svg">
<g clip-path="url(#clip0_18_95)">
<path d="M2.66667 14.6667C2.40383 14.6674 2.14347 14.6159 1.90065 14.5153C1.65783 14.4147 1.43736 14.267 1.252 14.0807L0.222667 13.1647C0.0905887 13.0469 0.0106989 12.8815 0.000571933 12.7048C-0.00955503 12.5282 0.0509104 12.3547 0.168667 12.2227C0.286423 12.0906 0.451823 12.0107 0.628483 12.0006C0.805142 11.9904 0.978589 12.0509 1.11067 12.1687L2.16733 13.1113C2.22782 13.1793 2.30158 13.2341 2.38405 13.2725C2.46653 13.3108 2.55598 13.3319 2.6469 13.3344C2.73783 13.3369 2.82831 13.3208 2.91276 13.287C2.99722 13.2532 3.07387 13.2025 3.138 13.138L5.538 10.8507C5.60069 10.7869 5.67556 10.7364 5.75816 10.7022C5.84076 10.668 5.9294 10.6507 6.01881 10.6514C6.10822 10.6522 6.19657 10.6709 6.2786 10.7064C6.36063 10.742 6.43467 10.7937 6.49631 10.8585C6.55794 10.9232 6.60592 10.9998 6.63739 11.0834C6.66886 11.1671 6.68317 11.2563 6.67947 11.3456C6.67577 11.435 6.65414 11.5227 6.61586 11.6035C6.57759 11.6843 6.52345 11.7565 6.45667 11.816L4.06667 14.092C3.88251 14.2751 3.66408 14.4201 3.42386 14.5187C3.18364 14.6173 2.92634 14.6676 2.66667 14.6667ZM15.3333 14H8.66667C8.48986 14 8.32029 13.9298 8.19526 13.8047C8.07024 13.6797 8 13.5101 8 13.3333C8 13.1565 8.07024 12.9869 8.19526 12.8619C8.32029 12.7369 8.48986 12.6667 8.66667 12.6667H15.3333C15.5101 12.6667 15.6797 12.7369 15.8047 12.8619C15.9298 12.9869 16 13.1565 16 13.3333C16 13.5101 15.9298 13.6797 15.8047 13.8047C15.6797 13.9298 15.5101 14 15.3333 14ZM2.66667 9.33333C2.40383 9.33402 2.14347 9.28258 1.90065 9.182C1.65783 9.08141 1.43736 8.93367 1.252 8.74733L0.195333 7.69066C0.0738945 7.56493 0.00669821 7.39653 0.00821716 7.22173C0.00973611 7.04693 0.0798487 6.87972 0.203454 6.75612C0.32706 6.63251 0.494268 6.5624 0.669066 6.56088C0.843864 6.55936 1.01227 6.62656 1.138 6.748L2.19533 7.80466C2.32224 7.92602 2.49107 7.99374 2.66667 7.99374C2.84226 7.99374 3.01109 7.92602 3.138 7.80466L5.538 5.51733C5.66601 5.39515 5.83731 5.32883 6.01422 5.33296C6.19113 5.33708 6.35916 5.41132 6.48133 5.53933C6.60351 5.66734 6.66983 5.83864 6.6657 6.01555C6.66158 6.19246 6.58734 6.36049 6.45933 6.48266L4.06667 8.75866C3.88251 8.94174 3.66408 9.08673 3.42386 9.18533C3.18364 9.28394 2.92634 9.33423 2.66667 9.33333ZM15.3333 8.66666H8.66667C8.48986 8.66666 8.32029 8.59642 8.19526 8.4714C8.07024 8.34638 8 8.17681 8 8C8 7.82318 8.07024 7.65362 8.19526 7.52859C8.32029 7.40357 8.48986 7.33333 8.66667 7.33333H15.3333C15.5101 7.33333 15.6797 7.40357 15.8047 7.52859C15.9298 7.65362 16 7.82318 16 8C16 8.17681 15.9298 8.34638 15.8047 8.4714C15.6797 8.59642 15.5101 8.66666 15.3333 8.66666ZM2.66667 4C2.40383 4.00069 2.14347 3.94925 1.90065 3.84866C1.65783 3.74808 1.43736 3.60034 1.252 3.414L0.222667 2.498C0.0905887 2.38024 0.0106989 2.21484 0.000571933 2.03818C-0.00955503 1.86152 0.0509104 1.68807 0.168667 1.556C0.286423 1.42392 0.451823 1.34403 0.628483 1.3339C0.805142 1.32377 0.978589 1.38424 1.11067 1.502L2.16733 2.44466C2.22782 2.51259 2.30158 2.56743 2.38405 2.60579C2.46653 2.64415 2.55598 2.66523 2.6469 2.66773C2.73783 2.67022 2.82831 2.65409 2.91276 2.62031C2.99722 2.58654 3.07387 2.53584 3.138 2.47133L5.54067 0.183996C5.66986 0.068976 5.83871 0.00867518 6.01154 0.0158298C6.18437 0.0229845 6.34765 0.0970345 6.46689 0.222339C6.58614 0.347644 6.65202 0.514392 6.65061 0.687363C6.64919 0.860335 6.58061 1.02599 6.45933 1.14933L4.06667 3.42533C3.88251 3.60841 3.66408 3.75339 3.42386 3.852C3.18364 3.95061 2.92634 4.0009 2.66667 4ZM15.3333 3.33333H8.66667C8.48986 3.33333 8.32029 3.26309 8.19526 3.13807C8.07024 3.01304 8 2.84347 8 2.66666C8 2.48985 8.07024 2.32028 8.19526 2.19526C8.32029 2.07023 8.48986 2 8.66667 2H15.3333C15.5101 2 15.6797 2.07023 15.8047 2.19526C15.9298 2.32028 16 2.48985 16 2.66666C16 2.84347 15.9298 3.01304 15.8047 3.13807C15.6797 3.26309 15.5101 3.33333 15.3333 3.33333Z" fill="#181725"/>
</g>
<defs>
<clipPath id="clip0_18_95">
<rect width="16" height="16" fill="white"/>
</clipPath>
</defs>
</svg>
