<svg width="25" height="21" viewBox="0 0 25 21" fill="none" xmlns="http://www.w3.org/2000/svg">
<path fill-rule="evenodd" clip-rule="evenodd" d="M3.21513 2.5183C2.72406 2.59215 2.53571 2.71287 2.40433 2.86018C2.25609 3.02639 2.12527 3.29351 2.05126 3.9102C1.9856 4.45723 1.97549 5.16268 1.97396 6.14512H3.86513C4.43221 6.14512 4.97606 6.36603 5.37704 6.75925C5.77802 7.15247 6.00329 7.68579 6.00329 8.24189V12.758C6.00329 13.3141 5.77802 13.8474 5.37704 14.2407C4.97606 14.6339 4.43221 14.8548 3.86513 14.8548H1.97396C1.97548 15.8379 1.98558 16.5436 2.05125 17.0906C2.12528 17.7072 2.25605 17.9729 2.40336 18.1376L2.40433 18.1387C2.53594 18.2863 2.72459 18.4071 3.21557 18.4812C3.75015 18.5618 4.47462 18.5645 5.59211 18.5645H11.5268C11.5178 18.512 11.5132 18.4581 11.5132 18.4032V13.578C10.1787 13.1669 9.21071 11.9443 9.21071 10.5C9.21071 9.05564 10.1787 7.83301 11.5132 7.42191V2.59673C11.5132 2.5418 11.5178 2.48793 11.5268 2.43549H5.59211C4.47434 2.43549 3.74989 2.43788 3.21513 2.5183ZM13.4732 2.43549C13.4822 2.48793 13.4868 2.5418 13.4868 2.59673V7.42179C14.8215 7.83279 15.7897 9.05551 15.7897 10.5C15.7897 11.9444 14.8215 13.1672 13.4868 13.5782V18.4032C13.4868 18.4581 13.4822 18.512 13.4732 18.5645H19.4079C20.5254 18.5645 21.2499 18.5618 21.7844 18.4812C22.2754 18.4071 22.4641 18.2863 22.5957 18.1387C22.7439 17.9725 22.8747 17.7054 22.9487 17.0887C23.0144 16.5418 23.0245 15.8367 23.026 14.8548H21.1349C20.5678 14.8548 20.0239 14.6339 19.623 14.2407C19.222 13.8474 18.9967 13.3141 18.9967 12.758V8.24189C18.9967 7.68579 19.222 7.15247 19.623 6.75925C20.0239 6.36603 20.5678 6.14512 21.1349 6.14512H23.026C23.0245 5.16209 23.0144 4.45637 22.9487 3.9094C22.8747 3.29285 22.7439 3.02706 22.5966 2.86239L22.5957 2.86131C22.4641 2.71374 22.2754 2.59285 21.7844 2.5188C21.2499 2.43817 20.5254 2.43549 19.4079 2.43549H13.4732ZM23.0263 8.0806H21.1349C21.0912 8.0806 21.0494 8.09759 21.0186 8.12784C20.9877 8.15809 20.9704 8.19911 20.9704 8.24189V12.758C20.9704 12.8008 20.9877 12.8418 21.0186 12.8721C21.0494 12.9023 21.0912 12.9193 21.1349 12.9193H23.0263V8.0806ZM25 13.887V7.11286L25 6.56728C25 5.40196 25 4.44228 24.9089 3.68307C24.8143 2.89512 24.6078 2.17607 24.0809 1.58667C23.5379 0.978092 22.8471 0.720843 22.0845 0.605812C21.3822 0.499891 20.5043 0.499944 19.4822 0.500005L5.59211 0.500008L5.51022 0.500004C4.49162 0.499929 3.61628 0.499865 2.91596 0.605182C2.15325 0.719881 1.46199 0.976825 0.918704 1.58596C0.392273 2.17621 0.185755 2.89529 0.0911012 3.68397C-4.59577e-05 4.44342 -2.48133e-05 5.40305 8.63917e-07 6.56837V6.5684V7.11286V13.887V14.4328V14.4328C-2.49309e-05 15.5981 -4.61716e-05 16.5577 0.0911066 17.3169C0.185748 18.1052 0.392307 18.8245 0.919667 19.414C1.46258 20.0221 2.15316 20.2792 2.91552 20.3942C3.61777 20.5001 4.49571 20.5001 5.51782 20.5H19.4822C20.5043 20.5001 21.3822 20.5001 22.0845 20.3942C22.8473 20.2791 23.5382 20.0218 24.0813 19.4129C24.6077 18.8227 24.8142 18.1036 24.9089 17.3149C25 16.5554 25 15.5958 25 14.4304L25 13.887ZM1.97369 12.9193H3.86513C3.90875 12.9193 3.95059 12.9023 3.98143 12.8721C4.01228 12.8418 4.02961 12.8008 4.02961 12.758V8.24189C4.02961 8.19912 4.01228 8.15809 3.98143 8.12784C3.95059 8.09759 3.90875 8.0806 3.86513 8.0806H1.97369V12.9193ZM12.5048 11.7903C13.2294 11.7878 13.816 11.2111 13.816 10.5C13.816 9.78735 13.2269 9.20965 12.5002 9.20965C11.7735 9.20965 11.1844 9.78735 11.1844 10.5C11.1844 11.211 11.7709 11.7877 12.4953 11.7903C12.4969 11.7903 12.4984 11.7903 12.5 11.7903C12.5016 11.7903 12.5032 11.7903 12.5048 11.7903Z" fill="#2AA64C"/>
</svg>
