<svg width="24" height="24" viewBox="0 0 24 24" fill="none" xmlns="http://www.w3.org/2000/svg">
<path d="M8.03886 12.07C8.17937 12.0175 8.33047 11.9903 8.48323 11.9898C8.636 11.9893 8.78732 12.0156 8.92826 12.0672C9.0692 12.1188 9.19689 12.1945 9.30379 12.29C9.41069 12.3855 9.49463 12.4988 9.55064 12.6231C9.60665 12.7475 9.6336 12.8804 9.62989 13.014C9.62618 13.1477 9.59189 13.2793 9.52905 13.4011C9.46621 13.523 9.37609 13.6325 9.26402 13.7234C9.15195 13.8142 9.02021 13.8845 8.87657 13.93C8.11262 14.1934 7.45695 14.6519 6.99486 15.2458C6.53278 15.8397 6.28568 16.5415 6.28571 17.26V19C6.28571 19.2652 6.40612 19.5196 6.62045 19.7071C6.83478 19.8946 7.12547 20 7.42857 20H16.5714C16.8745 20 17.1652 19.8946 17.3796 19.7071C17.5939 19.5196 17.7143 19.2652 17.7143 19V17.353C17.7144 16.6115 17.457 15.8874 16.9761 15.2768C16.4953 14.6662 15.8137 14.1979 15.0217 13.934C14.8772 13.8901 14.7442 13.8213 14.6306 13.7316C14.5171 13.6419 14.4253 13.5332 14.3606 13.4119C14.296 13.2905 14.2598 13.1591 14.2543 13.0253C14.2488 12.8916 14.274 12.7582 14.3285 12.6331C14.383 12.508 14.4656 12.3938 14.5715 12.2972C14.6774 12.2006 14.8043 12.1235 14.9449 12.0706C15.0854 12.0177 15.2366 11.9901 15.3896 11.9893C15.5426 11.9885 15.6942 12.0146 15.8354 12.066C17.0601 12.4742 18.1142 13.1983 18.8579 14.1425C19.6016 15.0867 19.9999 16.2063 20 17.353V19C20 19.7956 19.6388 20.5587 18.9958 21.1213C18.3528 21.6839 17.4807 22 16.5714 22H7.42857C6.51926 22 5.64719 21.6839 5.00421 21.1213C4.36122 20.5587 4 19.7956 4 19V17.26C4.00016 16.1402 4.38546 15.0463 5.10578 14.1206C5.82611 13.195 6.84812 12.4805 8.03886 12.07ZM12 2C13.2124 2 14.3752 2.42143 15.2325 3.17157C16.0898 3.92172 16.5714 4.93913 16.5714 6V8C16.5714 9.06087 16.0898 10.0783 15.2325 10.8284C14.3752 11.5786 13.2124 12 12 12C10.7876 12 9.62482 11.5786 8.76751 10.8284C7.9102 10.0783 7.42857 9.06087 7.42857 8V6C7.42857 4.93913 7.9102 3.92172 8.76751 3.17157C9.62482 2.42143 10.7876 2 12 2ZM12 4C11.3938 4 10.8124 4.21071 10.3838 4.58579C9.9551 4.96086 9.71429 5.46957 9.71429 6V8C9.71429 8.53043 9.9551 9.03914 10.3838 9.41421C10.8124 9.78929 11.3938 10 12 10C12.6062 10 13.1876 9.78929 13.6162 9.41421C14.0449 9.03914 14.2857 8.53043 14.2857 8V6C14.2857 5.46957 14.0449 4.96086 13.6162 4.58579C13.1876 4.21071 12.6062 4 12 4Z" fill="#181725"/>
</svg>
