<svg width="25" height="25" viewBox="0 0 25 25" fill="none" xmlns="http://www.w3.org/2000/svg">
<path d="M9.5 21.5C8.4 21.5 7.45833 21.1083 6.675 20.325C5.89167 19.5417 5.5 18.6 5.5 17.5V9.325C4.91667 9.10833 4.43767 8.746 4.063 8.238C3.68833 7.73 3.50067 7.15067 3.5 6.5C3.5 5.66667 3.79167 4.95833 4.375 4.375C4.95833 3.79167 5.66667 3.5 6.5 3.5C7.33333 3.5 8.04167 3.79167 8.625 4.375C9.20833 4.95833 9.5 5.66667 9.5 6.5C9.5 7.15 9.31267 7.72933 8.938 8.238C8.56333 8.74667 8.084 9.109 7.5 9.325V17.5C7.5 18.05 7.696 18.521 8.088 18.913C8.48 19.305 8.95067 19.5007 9.5 19.5C10.0493 19.4993 10.5203 19.3037 10.913 18.913C11.3057 18.5223 11.5013 18.0513 11.5 17.5V7.5C11.5 6.4 11.8917 5.45833 12.675 4.675C13.4583 3.89167 14.4 3.5 15.5 3.5C16.6 3.5 17.5417 3.89167 18.325 4.675C19.1083 5.45833 19.5 6.4 19.5 7.5V15.675C20.0833 15.8917 20.5627 16.2543 20.938 16.763C21.3133 17.2717 21.5007 17.8507 21.5 18.5C21.5 19.3333 21.2083 20.0417 20.625 20.625C20.0417 21.2083 19.3333 21.5 18.5 21.5C17.6667 21.5 16.9583 21.2083 16.375 20.625C15.7917 20.0417 15.5 19.3333 15.5 18.5C15.5 17.85 15.6877 17.2667 16.063 16.75C16.4383 16.2333 16.9173 15.875 17.5 15.675V7.5C17.5 6.95 17.3043 6.47933 16.913 6.088C16.5217 5.69667 16.0507 5.50067 15.5 5.5C14.9493 5.49933 14.4787 5.69533 14.088 6.088C13.6973 6.48067 13.5013 6.95133 13.5 7.5V17.5C13.5 18.6 13.1083 19.5417 12.325 20.325C11.5417 21.1083 10.6 21.5 9.5 21.5Z" fill="#2AA64C"/>
</svg>
